<svg xmlns="http://www.w3.org/2000/svg" viewBox="0 0 1200 630" width="1200" height="630">
('<defs>\n  <radialGradient id="bg" cx="50%" cy="42%" r="68%">\n    <stop offset="0" stop-color="#12182a"/><stop offset="0.58" stop-color="#060a12"/><stop offset="1" stop-color="#010205"/>\n  </radialGradient>\n  <linearGradient id="zGold" x1="15%" y1="0%" x2="90%" y2="100%">\n    <stop offset="0" stop-color="#fff0a8"/><stop offset="0.32" stop-color="#f7c83f"/><stop offset="0.73" stop-color="#e28a16"/><stop offset="1" stop-color="#713909"/>\n  </linearGradient>\n  <linearGradient id="trunk" x1="0" y1="0" x2="1" y2="1">\n    <stop offset="0" stop-color="#fff0a8"/><stop offset="0.52" stop-color="#e28a16"/><stop offset="1" stop-color="#713909"/>\n  </linearGradient>\n  <radialGradient id="halo"><stop offset="0" stop-color="#f6bd35" stop-opacity=".30"/><stop offset=".48" stop-color="#f6bd35" stop-opacity=".08"/><stop offset="1" stop-color="#f6bd35" stop-opacity="0"/></radialGradient>\n  <filter id="glow" x="-40%" y="-40%" width="180%" height="180%"><feGaussianBlur stdDeviation="8" result="b"/><feMerge><feMergeNode in="b"/><feMergeNode in="SourceGraphic"/></feMerge></filter>\n  <filter id="soft" x="-60%" y="-60%" width="220%" height="220%"><feGaussianBlur stdDeviation="5"/></filter>\n</defs>', ('#fff0a8', '#f7c83f', '#e28a16', '#713909', '#f6bd35', '#27e58b', '#d99a23'))
<rect width="1200" height="630" fill="url(#bg)"/>
<g transform="translate(344.0 0) scale(1)"><circle cx="256" cy="256" r="226" fill="none" stroke="#e2ae31" stroke-width="2.5" opacity=".55"/>
        <circle cx="256" cy="256" r="214" fill="none" stroke="#e2ae31" stroke-width="1" stroke-dasharray="5 8" opacity=".4"/>
        <path d="M34 256h26m392 0h26M256 34v26m0 392v26" stroke="#e2ae31" stroke-width="2" opacity=".75"/><g id="branches"><path d="M255 337 C250 292 235 260 205 235 C181 215 157 211 125 205" fill="none" stroke="#b66d18" stroke-width="14" stroke-linecap="round"/><path d="M255 337 C250 292 235 260 205 235 C181 215 157 211 125 205" fill="none" stroke="#f5d550" stroke-width="2.24" opacity=".55" stroke-linecap="round"/><path d="M258 337 C267 291 287 261 311 235 C337 214 370 211 404 203" fill="none" stroke="#b66d18" stroke-width="14" stroke-linecap="round"/><path d="M258 337 C267 291 287 261 311 235 C337 214 370 211 404 203" fill="none" stroke="#f5d550" stroke-width="2.24" opacity=".55" stroke-linecap="round"/><path d="M215 250 C184 247 157 240 127 228" fill="none" stroke="#b66d18" stroke-width="8" stroke-linecap="round"/><path d="M215 250 C184 247 157 240 127 228" fill="none" stroke="#f5d550" stroke-width="1.5" opacity=".55" stroke-linecap="round"/><path d="M298 250 C332 247 358 240 388 228" fill="none" stroke="#b66d18" stroke-width="8" stroke-linecap="round"/><path d="M298 250 C332 247 358 240 388 228" fill="none" stroke="#f5d550" stroke-width="1.5" opacity=".55" stroke-linecap="round"/><path d="M239 269 C231 235 225 201 213 174" fill="none" stroke="#b66d18" stroke-width="8" stroke-linecap="round"/><path d="M239 269 C231 235 225 201 213 174" fill="none" stroke="#f5d550" stroke-width="1.5" opacity=".55" stroke-linecap="round"/><path d="M277 268 C284 231 294 199 307 169" fill="none" stroke="#b66d18" stroke-width="8" stroke-linecap="round"/><path d="M277 268 C284 231 294 199 307 169" fill="none" stroke="#f5d550" stroke-width="1.5" opacity=".55" stroke-linecap="round"/><path d="M255 247 C253 204 255 153 256 102" fill="none" stroke="#b66d18" stroke-width="8" stroke-linecap="round"/><path d="M255 247 C253 204 255 153 256 102" fill="none" stroke="#f5d550" stroke-width="1.5" opacity=".55" stroke-linecap="round"/></g><g id="canopy"><polygon points="256,58 222,147 287,147" fill="#0a7148"/><polygon points="205,76 158,162 237,152" fill="#119b5b"/><polygon points="308,76 275,152 354,162" fill="#1dd880"/><polygon points="150,104 82,192 185,168" fill="#80ed6d"/><polygon points="364,104 327,168 430,192" fill="#f3c43a"/><polygon points="112,141 48,218 151,191" fill="#e79b21"/><polygon points="400,141 361,191 464,218" fill="#167b63"/><polygon points="174,128 129,220 220,185" fill="#0a7148"/><polygon points="338,128 292,185 383,220" fill="#119b5b"/><polygon points="250,102 208,202 269,181" fill="#1dd880"/><polygon points="265,102 242,181 304,202" fill="#80ed6d"/><polygon points="95,183 39,245 150,223" fill="#f3c43a"/><polygon points="418,183 362,223 473,245" fill="#e79b21"/><polygon points="135,178 87,257 185,218" fill="#167b63"/><polygon points="377,178 327,218 425,257" fill="#0a7148"/><polygon points="192,176 149,259 231,222" fill="#119b5b"/><polygon points="320,176 281,222 363,259" fill="#1dd880"/><polygon points="244,154 204,252 268,213" fill="#80ed6d"/><polygon points="271,154 244,213 308,252" fill="#f3c43a"/><polygon points="72,220 43,272 129,248" fill="#e79b21"/><polygon points="440,220 383,248 469,272" fill="#167b63"/><polygon points="170,219 125,276 215,247" fill="#0a7148"/><polygon points="342,219 297,247 387,276" fill="#119b5b"/><polygon points="231,211 181,270 257,243" fill="#1dd880"/><polygon points="281,211 255,243 331,270" fill="#80ed6d"/><path d="M256 242 C240 205 221 180 205 150" fill="none" stroke="#5dffae" stroke-width="3" opacity=".42" stroke-linecap="round"/><path d="M255 240 C275 202 295 175 309 143" fill="none" stroke="#5dffae" stroke-width="3" opacity=".42" stroke-linecap="round"/><path d="M220 210 C181 201 150 190 112 169" fill="none" stroke="#5dffae" stroke-width="3" opacity=".42" stroke-linecap="round"/><path d="M290 210 C330 200 365 187 402 168" fill="none" stroke="#5dffae" stroke-width="3" opacity=".42" stroke-linecap="round"/><path d="M184 226 C145 225 113 218 82 205" fill="none" stroke="#5dffae" stroke-width="3" opacity=".42" stroke-linecap="round"/><path d="M327 226 C368 225 400 218 431 205" fill="none" stroke="#5dffae" stroke-width="3" opacity=".42" stroke-linecap="round"/><path d="M244 190 C238 152 246 112 256 82" fill="none" stroke="#5dffae" stroke-width="3" opacity=".42" stroke-linecap="round"/></g><g id="fruit"><circle cx="114" cy="209" r="19.2" fill="#ffe56d" opacity=".34" filter="url(#soft)"/><circle cx="114" cy="209" r="8" fill="#ffe56d"/><circle cx="112.0" cy="207.0" r="2.4" fill="#fff" opacity=".92"/><circle cx="165" cy="163" r="21.599999999999998" fill="#2cff9d" opacity=".34" filter="url(#soft)"/><circle cx="165" cy="163" r="9" fill="#2cff9d"/><circle cx="162.75" cy="160.75" r="2.6999999999999997" fill="#fff" opacity=".92"/><circle cx="211" cy="126" r="19.2" fill="#52c7ff" opacity=".34" filter="url(#soft)"/><circle cx="211" cy="126" r="8" fill="#52c7ff"/><circle cx="209.0" cy="124.0" r="2.4" fill="#fff" opacity=".92"/><circle cx="257" cy="93" r="24.0" fill="#ef75ff" opacity=".34" filter="url(#soft)"/><circle cx="257" cy="93" r="10" fill="#ef75ff"/><circle cx="254.5" cy="90.5" r="3.0" fill="#fff" opacity=".92"/><circle cx="307" cy="130" r="19.2" fill="#ffe56d" opacity=".34" filter="url(#soft)"/><circle cx="307" cy="130" r="8" fill="#ffe56d"/><circle cx="305.0" cy="128.0" r="2.4" fill="#fff" opacity=".92"/><circle cx="354" cy="164" r="21.599999999999998" fill="#2cff9d" opacity=".34" filter="url(#soft)"/><circle cx="354" cy="164" r="9" fill="#2cff9d"/><circle cx="351.75" cy="161.75" r="2.6999999999999997" fill="#fff" opacity=".92"/><circle cx="402" cy="208" r="19.2" fill="#52c7ff" opacity=".34" filter="url(#soft)"/><circle cx="402" cy="208" r="8" fill="#52c7ff"/><circle cx="400.0" cy="206.0" r="2.4" fill="#fff" opacity=".92"/><circle cx="181" cy="221" r="16.8" fill="#ef75ff" opacity=".34" filter="url(#soft)"/><circle cx="181" cy="221" r="7" fill="#ef75ff"/><circle cx="179.25" cy="219.25" r="2.1" fill="#fff" opacity=".92"/><circle cx="330" cy="221" r="16.8" fill="#ffe56d" opacity=".34" filter="url(#soft)"/><circle cx="330" cy="221" r="7" fill="#ffe56d"/><circle cx="328.25" cy="219.25" r="2.1" fill="#fff" opacity=".92"/></g><path d="M142 276
 C142 264 151 255 165 255
 L364 255 C379 255 385 272 373 282
 L235 382 L365 382 C378 382 386 391 386 403
 C386 416 377 424 364 424
 L148 424 C133 424 128 406 140 396
 L280 297 L164 297 C151 297 142 289 142 276 Z"
 fill="url(#zGold)" filter="url(#glow)"/>
 <path d="M169 271 L337 271 M328 283 L164 401 M177 409 L355 409" fill="none" stroke="#fff7c9" stroke-width="4" opacity=".38" stroke-linecap="round"/><g id="roots"><path d="M256 382 C250 426 249 461 256 492" fill="none" stroke="#a75b12" stroke-width="13" stroke-linecap="round"/><path d="M256 382 C250 426 249 461 256 492" fill="none" stroke="#f4c84d" stroke-width="2.08" opacity=".54" stroke-linecap="round"/><path d="M236 379 C220 422 196 451 159 474" fill="none" stroke="#a75b12" stroke-width="12" stroke-linecap="round"/><path d="M236 379 C220 422 196 451 159 474" fill="none" stroke="#f4c84d" stroke-width="1.92" opacity=".54" stroke-linecap="round"/><path d="M218 376 C186 407 152 424 111 443" fill="none" stroke="#a75b12" stroke-width="10" stroke-linecap="round"/><path d="M218 376 C186 407 152 424 111 443" fill="none" stroke="#f4c84d" stroke-width="1.6" opacity=".54" stroke-linecap="round"/><path d="M199 374 C164 395 122 403 78 410" fill="none" stroke="#a75b12" stroke-width="8" stroke-linecap="round"/><path d="M199 374 C164 395 122 403 78 410" fill="none" stroke="#f4c84d" stroke-width="1.28" opacity=".54" stroke-linecap="round"/><path d="M275 379 C293 422 316 451 353 474" fill="none" stroke="#a75b12" stroke-width="12" stroke-linecap="round"/><path d="M275 379 C293 422 316 451 353 474" fill="none" stroke="#f4c84d" stroke-width="1.92" opacity=".54" stroke-linecap="round"/><path d="M294 376 C327 407 361 424 402 443" fill="none" stroke="#a75b12" stroke-width="10" stroke-linecap="round"/><path d="M294 376 C327 407 361 424 402 443" fill="none" stroke="#f4c84d" stroke-width="1.6" opacity=".54" stroke-linecap="round"/><path d="M313 374 C348 395 390 403 434 410" fill="none" stroke="#a75b12" stroke-width="8" stroke-linecap="round"/><path d="M313 374 C348 395 390 403 434 410" fill="none" stroke="#f4c84d" stroke-width="1.28" opacity=".54" stroke-linecap="round"/></g></g>
<text x="600.0" y="562" text-anchor="middle" font-family="Inter, Helvetica Neue, Arial, sans-serif" font-weight="800" font-size="46" letter-spacing="14" fill="#f5ca42">ZION</text>
<text x="600.0" y="602" text-anchor="middle" font-family="Inter, Helvetica Neue, Arial, sans-serif" font-weight="600" font-size="15" letter-spacing="8" fill="#72efad">TERRA NOVA</text>
</svg>